# xmcd
#
# Track frame offsets: 
#        150
#        23000
#        67202
#        91352
#        138535
#        171070
#        198787
#        231272
#        259740
#        298175
#        319457
#
# Disc length: 4432 seconds
#
# Revision: 7
# Processed by: cddbd v1.5.2PL0 Copyright (c) Steve Scherf et al.
# Submitted via: ExactAudioCopy v1.0b3
#
DISCID=a5114e0b
DTITLE=Mike Garson - The Oxnard Sessions Vol. 2
DYEAR=1993
DGENRE=Jazz
TTITLE0=Rumble
TTITLE1=All Blues
TTITLE2=It's You or No one
TTITLE3=A Song for You
TTITLE4=Waltz for Bill
TTITLE5=Rebirth
TTITLE6=A Night in Tunisia
TTITLE7=Nardis
TTITLE8=Count Your Blessings
TTITLE9=I Get a Kick Out of You
TTITLE10=In a Sentimental Mood
EXTD=recorded 1992\n(P) and (C) 1993 YEAR: 1993
EXTT0=
EXTT1=
EXTT2=
EXTT3=
EXTT4=
EXTT5=
EXTT6=
EXTT7=
EXTT8=
EXTT9=
EXTT10=
PLAYORDER=
